<svg width="26" height="23" viewBox="0 0 26 23" fill="none" xmlns="http://www.w3.org/2000/svg">
<path d="M4.46844 18.0364H25.7751V0.965332H4.40964C3.46442 0.96763 2.55878 1.25251 1.89041 1.7578C1.22204 2.26309 0.845202 2.94775 0.842163 3.66233V19.3811H0.84281C0.84281 19.3879 0.842163 19.3945 0.842163 19.4013C0.842163 20.975 2.47586 22.3042 4.40964 22.3042H25.7751V20.8815H4.40964C3.5274 20.8815 2.7239 20.176 2.7239 19.4011C2.7239 18.6614 3.52275 18.0364 4.46844 18.0364ZM19.6595 2.40272V10.0854L16.8134 8.19647L14.0143 10.0743V2.40272H19.6595ZM12.1326 2.38792V11.9904H13.9932L16.8202 10.0939L19.6774 11.9904H21.5412V2.38792H23.8934V16.6138H6.49207L6.48737 2.38792H12.1326ZM4.40964 2.38792H4.60563L4.6101 16.6138H4.46821C3.85634 16.6139 3.2551 16.7347 2.7239 16.9642V3.67345C2.72246 3.33409 2.89913 3.00816 3.21516 2.76717C3.53119 2.52617 3.96076 2.38978 4.40964 2.38792Z" fill="black"/>
</svg>
