<svg width="25" height="50" viewBox="0 0 25 50" fill="none" xmlns="http://www.w3.org/2000/svg">
<g clip-path="url(#clip0_276_123)">
<path d="M19.6875 3.125H14.6875C12.0362 3.12707 9.49437 3.88028 7.61963 5.21938C5.74489 6.55848 4.6904 8.37409 4.6875 10.2679V20.9821C4.6904 22.8759 5.74489 24.6915 7.61963 26.0306C9.49437 27.3697 12.0362 28.1229 14.6875 28.125H19.6875C22.3388 28.1229 24.8806 27.3697 26.7554 26.0306C28.6301 24.6915 29.6846 22.8759 29.6875 20.9821V10.2679C29.6846 8.37409 28.6301 6.55848 26.7554 5.21938C24.8806 3.88028 22.3388 3.12707 19.6875 3.125ZM27.1875 20.9821C27.1854 22.4025 26.3946 23.7642 24.9885 24.7686C23.5824 25.7729 21.676 26.3378 19.6875 26.3393H14.6875C12.699 26.3378 10.7926 25.7729 9.38648 24.7686C7.98041 23.7642 7.18957 22.4025 7.1875 20.9821V10.2679C7.18957 8.84751 7.98041 7.48576 9.38648 6.48142C10.7926 5.47708 12.699 4.91219 14.6875 4.91071H19.6875C21.676 4.91219 23.5824 5.47708 24.9885 6.48142C26.3946 7.48576 27.1854 8.84751 27.1875 10.2679V20.9821ZM18.4375 8.48214V13.8393C18.4375 14.0761 18.3058 14.3032 18.0714 14.4706C17.837 14.6381 17.519 14.7321 17.1875 14.7321C16.856 14.7321 16.538 14.6381 16.3036 14.4706C16.0692 14.3032 15.9375 14.0761 15.9375 13.8393V8.48214C15.9375 8.24534 16.0692 8.01824 16.3036 7.8508C16.538 7.68335 16.856 7.58929 17.1875 7.58929C17.519 7.58929 17.837 7.68335 18.0714 7.8508C18.3058 8.01824 18.4375 8.24534 18.4375 8.48214Z" fill="black"/>
</g>
<defs>
<clipPath id="clip0_276_123">
<rect width="25" height="50" fill="white"/>
</clipPath>
</defs>
</svg>
