<svg width="23" height="23" viewBox="0 0 23 23" fill="none" xmlns="http://www.w3.org/2000/svg">
<path fill-rule="evenodd" clip-rule="evenodd" d="M0.302002 1.0835C0.302002 0.876296 0.384312 0.677582 0.530825 0.531069C0.677338 0.384556 0.876052 0.302246 1.08325 0.302246H21.9166C22.1238 0.302246 22.3225 0.384556 22.469 0.531069C22.6155 0.677582 22.6978 0.876296 22.6978 1.0835C22.6978 1.2907 22.6155 1.48941 22.469 1.63592C22.3225 1.78244 22.1238 1.86475 21.9166 1.86475H20.6145V9.99808C20.6145 11.5429 20.6145 12.7856 20.476 13.7627C20.3322 14.7783 20.0239 15.621 19.3249 16.2835C18.6312 16.9418 17.7593 17.2252 16.7083 17.3595C15.6864 17.4897 14.3822 17.4897 12.7458 17.4897H12.2812V20.3929L13.9322 21.2179C14.0248 21.2632 14.1075 21.3264 14.1756 21.4039C14.2436 21.4813 14.2957 21.5715 14.3287 21.6692C14.3618 21.7668 14.3752 21.8701 14.3681 21.9729C14.3611 22.0758 14.3337 22.1763 14.2877 22.2685C14.2416 22.3608 14.1778 22.443 14.0998 22.5104C14.0218 22.5779 13.9312 22.6292 13.8333 22.6615C13.7354 22.6938 13.632 22.7064 13.5292 22.6985C13.4264 22.6907 13.3262 22.6626 13.2343 22.6158L11.4999 21.7491L9.76554 22.6158C9.67366 22.6626 9.57342 22.6907 9.47061 22.6985C9.36781 22.7064 9.26446 22.6938 9.16654 22.6615C9.06862 22.6292 8.97805 22.5779 8.90007 22.5104C8.82209 22.443 8.75823 22.3608 8.71217 22.2685C8.66612 22.1763 8.63878 22.0758 8.63173 21.9729C8.62468 21.8701 8.63806 21.7668 8.67111 21.6692C8.70415 21.5715 8.7562 21.4813 8.82426 21.4039C8.89231 21.3264 8.97502 21.2632 9.06763 21.2179L10.7187 20.3918V17.4897H10.2541C8.61763 17.4897 7.31346 17.4897 6.29159 17.3595C5.2395 17.2252 4.36867 16.9418 3.67492 16.2835C2.97596 15.621 2.66763 14.7783 2.52388 13.7627C2.38534 12.7856 2.38534 11.5429 2.38534 9.99808V1.86475H1.08325C0.876052 1.86475 0.677338 1.78244 0.530825 1.63592C0.384312 1.48941 0.302002 1.2907 0.302002 1.0835ZM3.94784 1.86475V9.93766C3.94784 11.5564 3.94992 12.6877 4.07075 13.5418C4.18846 14.37 4.40409 14.821 4.74992 15.1502C5.102 15.4835 5.59575 15.696 6.4895 15.8095C7.40096 15.9262 8.60409 15.9272 10.3093 15.9272H12.6905C14.3947 15.9272 15.5989 15.9262 16.5103 15.8095C17.4041 15.695 17.8978 15.4835 18.2499 15.1502C18.5958 14.821 18.8124 14.37 18.9291 13.5429C19.0499 12.6887 19.052 11.5564 19.052 9.93766V1.86475H3.94784ZM15.177 7.30225C15.3233 7.44873 15.4055 7.6473 15.4055 7.85433C15.4055 8.06136 15.3233 8.25993 15.177 8.40641L13.8301 9.75329L13.8051 9.77933C13.6575 9.93354 13.5002 10.0783 13.3343 10.2127C13.1101 10.3956 12.8309 10.4979 12.5416 10.5033C12.2523 10.4979 11.9731 10.3956 11.7489 10.2127C11.583 10.0783 11.4257 9.93354 11.278 9.77933L11.253 9.75329L10.6426 9.14287L10.4583 8.96058L10.2739 9.14287L8.927 10.4897C8.85548 10.5665 8.76923 10.6281 8.6734 10.6708C8.57756 10.7135 8.47411 10.7364 8.36921 10.7383C8.26431 10.7401 8.16012 10.7208 8.06284 10.6815C7.96556 10.6422 7.87719 10.5838 7.803 10.5096C7.72882 10.4354 7.67033 10.347 7.63104 10.2497C7.59175 10.1525 7.57245 10.0483 7.5743 9.94337C7.57615 9.83847 7.59911 9.73502 7.64181 9.63919C7.68451 9.54335 7.74608 9.4571 7.82284 9.38558L9.16971 8.0387L9.19471 8.01266C9.34575 7.86162 9.50929 7.69808 9.66554 7.57933C9.88976 7.39639 10.1689 7.29405 10.4583 7.2887C10.8062 7.2887 11.0676 7.43975 11.251 7.57933C11.4072 7.69808 11.5708 7.86162 11.7218 8.01266L11.7468 8.0387L12.3572 8.64912L12.5416 8.83141L12.726 8.64912L14.0728 7.30225C14.2193 7.15594 14.4179 7.07377 14.6249 7.07377C14.832 7.07377 15.0305 7.15594 15.177 7.30225Z" fill="black"/>
</svg>
