<svg width="25" height="25" viewBox="0 0 25 25" fill="none" xmlns="http://www.w3.org/2000/svg">
<path d="M8.33331 18.75C5.38748 18.75 3.91352 18.75 2.99894 17.8344C2.08331 16.9198 2.08331 15.4458 2.08331 12.5C2.08331 9.55417 2.08331 8.08021 2.99894 7.16563C3.91352 6.25 5.38748 6.25 8.33331 6.25H16.6666C19.6125 6.25 21.0864 6.25 22.001 7.16563C22.9166 8.08021 22.9166 9.55417 22.9166 12.5C22.9166 15.4458 22.9166 16.9198 22.001 17.8344C21.0864 18.75 19.6125 18.75 16.6666 18.75H8.33331Z" stroke="black" stroke-width="1.5"/>
<path d="M4.6875 3.125H20.3125M4.6875 21.875H20.3125" stroke="black" stroke-width="1.5" stroke-linecap="round"/>
</svg>
